<svg xmlns="http://www.w3.org/2000/svg" width="64" height="64" viewBox="0 0 64 64">
  <defs>
    <style>
      .cls-1 {
        fill: #3172b9;
        fill-rule: evenodd;
      }
    </style>
  </defs>
  <path id="icon" class="cls-1" d="M950.548,1081.01a4.007,4.007,0,0,0-2.343-1.98l-22.139-7.01H926.04l-0.077-.25a4,4,0,0,0-5.02-2.6l-31.148,9.86a4.015,4.015,0,0,0-2.606,5.03l14.616,46.13a4.009,4.009,0,0,0,3.816,2.79,3.891,3.891,0,0,0,1.205-.19L919,1128.94l12.173,3.85a3.9,3.9,0,0,0,1.206.19,4.007,4.007,0,0,0,3.815-2.79l2.367-7.47c0-.01.006-0.02,0.009-0.03a4.037,4.037,0,0,0,1.747-1.73,3.972,3.972,0,0,0,.262-3.05l-0.247-.78,10.478-33.07A3.968,3.968,0,0,0,950.548,1081.01Zm-16.895,48.37a1.331,1.331,0,0,1-1.675.87l-8.562-2.71,12.028-3.81Zm4.3-9.65a1.326,1.326,0,0,1-.781.66l-18.523,5.86-0.086.03-12.539,3.97a1.33,1.33,0,0,1-1.674-.87l-14.616-46.13a1.337,1.337,0,0,1,.088-1.02,1.307,1.307,0,0,1,.781-0.65l31.148-9.87h0a1.337,1.337,0,0,1,1.673.87l14.616,46.13A1.332,1.332,0,0,1,937.95,1119.73Zm-8.5-36.97,11,3.49-4.949,15.62Zm18.824,0.49-9.335,29.46-2.038-6.43,6.092-19.23a2.64,2.64,0,0,0-.176-2.03,2.682,2.682,0,0,0-1.561-1.32l-12.518-3.96a1.234,1.234,0,0,0-.263-0.06l-1.446-4.56,20.376,6.46a1.307,1.307,0,0,1,.781.65A1.337,1.337,0,0,1,948.269,1083.25ZM914.186,1092a4.924,4.924,0,0,1-5.869,1.86,4.916,4.916,0,0,0-3.207,6.18,4.605,4.605,0,0,0,2.656,2.88l5.519,2.25a2.677,2.677,0,0,0,1.04.21,2.936,2.936,0,0,0,.831-0.13,2.79,2.79,0,0,0,1.486-1.14l3.213-5.02a4.617,4.617,0,0,0,.513-3.89A4.922,4.922,0,0,0,914.186,1092Zm3.423,5.65-3.213,5.02a0.1,0.1,0,0,1-.045.04,0.119,0.119,0,0,1-.058-0.01l-5.518-2.25a1.936,1.936,0,0,1-1.123-1.22,2.252,2.252,0,0,1,1.47-2.83,2.35,2.35,0,0,1,.689-0.11,2.255,2.255,0,0,1,1.488.57,1.334,1.334,0,0,0,2.178-.69,2.255,2.255,0,0,1,3.236-1.48,2.2,2.2,0,0,1,1.113,1.32A1.941,1.941,0,0,1,917.609,1097.65Zm3.684-18.92a2.677,2.677,0,0,0-3.348-1.74l-21.2,6.71a2.682,2.682,0,0,0-1.561,1.32,2.636,2.636,0,0,0-.176,2.03l9.881,31.19a2.676,2.676,0,0,0,2.544,1.86,2.792,2.792,0,0,0,.8-0.12l21.2-6.72a2.658,2.658,0,0,0,1.737-3.34Zm-13.858,38.7-9.881-31.18,11.425-3.62,9.772-3.1,9.88,31.19Z" transform="translate(-887 -1068.97)"/>
</svg>
